<svg xmlns="http://www.w3.org/2000/svg" xmlns:svg="http://www.w3.org/2000/svg" id="svg8" width="64" height="64" version="1.1" viewBox="0 0 16.933 16.933"><metadata id="metadata5"/><g id="layer1" transform="translate(0,-280.06667)"><rect style="fill:#666;fill-opacity:1;stroke:none;stroke-width:.1309631;stroke-miterlimit:4;stroke-dasharray:none;stroke-opacity:1" id="rect10" width="16.933" height="16.933" x="0" y="280.067"/><g id="text1476" aria-label="?" style="font-size:15.8806px;line-height:1.25;font-family:Roboto;-inkscape-font-specification:Roboto;fill:#fff;stroke-width:.397016"><path id="path2230" d="m 7.487094,291.06318 q 0.015508,-0.92275 0.2093634,-1.45779 0.193855,-0.53504 0.7909283,-1.18639 l 1.0158001,-1.04682 q 0.6513532,-0.73665 0.6513532,-1.58186 0,-0.81419 -0.4264814,-1.27168 -0.426481,-0.46526 -1.2406719,-0.46526 -0.7909283,0 -1.2716887,0.41873 -0.4807603,0.41873 -0.4807603,1.12436 H 5.3004098 q 0.015508,-1.25618 0.8917329,-2.02385 0.8839787,-0.77542 2.295243,-0.77542 1.4655437,0 2.2797343,0.79093 0.821945,0.78318 0.821945,2.15567 0,1.35698 -1.25618,2.6752 l -0.8452076,0.83745 q -0.5660565,0.62809 -0.5660565,1.80673 z m -0.062034,2.45808 q 0,-0.34894 0.2093634,-0.58156 0.2171176,-0.24038 0.6358443,-0.24038 0.4187268,0 0.6358444,0.24038 0.2171175,0.23262 0.2171175,0.58156 0,0.34894 -0.2171175,0.58157 -0.2171176,0.22487 -0.6358444,0.22487 -0.4187267,0 -0.6358443,-0.22487 -0.2093634,-0.23263 -0.2093634,-0.58157 z"/></g></g></svg>