<svg xmlns="http://www.w3.org/2000/svg" xmlns:svg="http://www.w3.org/2000/svg" id="svg5" width="32" height="32" version="1.1" viewBox="0 0 32 32"><g id="layer1"><g id="g1919" transform="matrix(0.88158416,0.88158416,-0.88158074,0.88158074,2.5643462,-17.406857)" style="fill:#fff"><rect style="fill:#fff;stroke-width:.675812;stroke-linecap:square" id="rect1126" width="1" height="3.12" x="26.042" y="-2.206"/><rect style="fill:#fff;stroke-width:.675812;stroke-linecap:square" id="rect1924" width="1" height="3.12" x="20.685" y="-21.996" transform="rotate(45)"/><rect style="fill:#fff;stroke-width:.675812;stroke-linecap:square" id="rect1926" width="1" height="3.12" x="2.903" y="-32.202" transform="rotate(90)"/><rect style="fill:#fff;stroke-width:.675812;stroke-linecap:square" id="rect1928" width="1" height="3.12" x="15.836" y="15.576" transform="rotate(-45)"/><rect style="fill:#fff;stroke-width:.675812;stroke-linecap:square" id="rect1930" width="1" height="3.12" x="-3.955" y="20.933" transform="rotate(-90)"/></g><path id="rect1706" d="M 15.468772,11.571282 3.0698907,23.970165 a 3.5069335,2.6302001 45 0 0 0.6199442,4.339608 3.5069335,2.6302001 45 0 0 4.3396088,0.619944 L 20.428326,16.530835 a 3.5069335,2.6302001 45 0 1 -4.339609,-0.619944 3.5069335,2.6302001 45 0 1 -0.619945,-4.339609 z" style="fill:none;stroke:#fff;stroke-width:2;stroke-linecap:square;stroke-miterlimit:4;stroke-dasharray:none;stroke-opacity:1"/><ellipse style="fill:none;stroke:#fff;stroke-width:2;stroke-linecap:square;stroke-miterlimit:4;stroke-dasharray:none;stroke-opacity:1" id="ellipse3558" cx="22.628" cy="-2.756" rx="3.507" ry="2.63" transform="rotate(45)"/><path style="fill:#fff;stroke:#fff;stroke-width:1px;stroke-linecap:butt;stroke-linejoin:miter;stroke-opacity:1" id="path7278" d="M 18.381116,13.764977 23.432761,8.7133316"/></g></svg>