<svg xmlns="http://www.w3.org/2000/svg" xmlns:svg="http://www.w3.org/2000/svg" id="svg5" width="16" height="16" version="1.1" viewBox="0 0 4.233 4.233"><defs id="defs2"><clipPath id="clipPath54065" clipPathUnits="userSpaceOnUse"><path id="path54067" d="M 2.076359,0.63510335 V 1.6934367 H 0.68419596 V 1.8257283 H 3.6685098 V 1.6934367 H 2.2086507 V 0.63510335 Z" style="display:block;fill:#000;stroke:none;stroke-width:.0549891;stroke-linecap:square;stroke-linejoin:miter;stroke-miterlimit:2;stroke-dasharray:none;stroke-opacity:.995048"/></clipPath><clipPath id="clipPath54065-6" clipPathUnits="userSpaceOnUse"><path id="path54067-1" d="M 2.076359,0.63510335 V 1.6934367 H 0.68419596 V 1.8257283 H 3.6685098 V 1.6934367 H 2.2086507 V 0.63510335 Z" style="display:block;fill:#000;stroke:none;stroke-width:.0549891;stroke-linecap:square;stroke-linejoin:miter;stroke-miterlimit:2;stroke-dasharray:none;stroke-opacity:.995048"/></clipPath></defs><g id="layer1"><g id="layer1-1" transform="matrix(0.11495075,0.42900204,-0.42900204,0.11495075,4.4201041,0.53510989)"><path style="fill:#fff;stroke-width:.35558;stroke-linecap:round;stroke-linejoin:round" id="rect1005" width=".543" height="10.866" x="-1.88" y=".293" d="m -1.879859,0.29344112 h 0.5432937 V 11.159314 H -1.879859 Z" transform="rotate(-30)"/><path style="fill:none;stroke:#fff;stroke-width:.357436;stroke-linecap:butt;stroke-linejoin:miter;stroke-miterlimit:4;stroke-dasharray:none;stroke-opacity:1" id="path1120" d="m -1.0569611,1.0972099 4.3097535,1.182865 c 2.1875107,0.6003894 4.0176263,1.6819679 3.7136518,3.1539027 -0.020489,0.099215 -0.020489,0.099215 -0.020489,0.099215"/><path style="fill:none;stroke:#fff;stroke-width:.357436;stroke-linecap:butt;stroke-linejoin:miter;stroke-miterlimit:4;stroke-dasharray:none;stroke-opacity:1" id="path4210" d="M 6.9543102,5.4832715 C 6.8353072,6.30162 5.2385334,6.0353905 5.1750454,5.6152668"/><path style="fill:#fff;stroke:none;stroke-width:1.00157;stroke-linecap:round;stroke-linejoin:round;stroke-miterlimit:4;stroke-dasharray:none" id="path5477" d="M 8.7305119,12.415568 8.2183922,12.08747 7.7062725,11.759372 8.2464737,11.479912 8.7866749,11.200453 8.7585934,11.80801 Z" transform="matrix(0.27804289,-0.48158441,0.48158441,0.27804289,-2.9160006,6.305543)"/><circle style="fill:#fff;stroke:none;stroke-width:.155226;stroke-linecap:round;stroke-linejoin:round;stroke-miterlimit:4;stroke-dasharray:none" id="path6513" cx="-7.424" cy="5.663" r=".38" transform="rotate(-75)"/></g></g></svg>