<svg xmlns="http://www.w3.org/2000/svg" xmlns:svg="http://www.w3.org/2000/svg" id="svg5" width="16" height="16" version="1.1" viewBox="0 0 4.233 4.233"><defs id="defs2"><clipPath id="clipPath54065" clipPathUnits="userSpaceOnUse"><path id="path54067" d="M 2.076359,0.63510335 V 1.6934367 H 0.68419596 V 1.8257283 H 3.6685098 V 1.6934367 H 2.2086507 V 0.63510335 Z" style="display:block;fill:#000;stroke:none;stroke-width:.0549891;stroke-linecap:square;stroke-linejoin:miter;stroke-miterlimit:2;stroke-dasharray:none;stroke-opacity:.995048"/></clipPath><clipPath id="clipPath54065-6" clipPathUnits="userSpaceOnUse"><path id="path54067-1" d="M 2.076359,0.63510335 V 1.6934367 H 0.68419596 V 1.8257283 H 3.6685098 V 1.6934367 H 2.2086507 V 0.63510335 Z" style="display:block;fill:#000;stroke:none;stroke-width:.0549891;stroke-linecap:square;stroke-linejoin:miter;stroke-miterlimit:2;stroke-dasharray:none;stroke-opacity:.995048"/></clipPath><clipPath id="clipPath54065-8" clipPathUnits="userSpaceOnUse"><path id="path54067-5" d="M 2.076359,0.63510335 V 1.6934367 H 0.68419596 V 1.8257283 H 3.6685098 V 1.6934367 H 2.2086507 V 0.63510335 Z" style="display:block;fill:#000;stroke:none;stroke-width:.0549891;stroke-linecap:square;stroke-linejoin:miter;stroke-miterlimit:2;stroke-dasharray:none;stroke-opacity:.995048"/></clipPath></defs><g id="layer1"><ellipse style="fill:#fff;fill-opacity:.6;stroke:#fff;stroke-width:.264341;stroke-linecap:round;stroke-linejoin:round;stroke-miterlimit:4;stroke-dasharray:none" id="path1152" cx="-2.968" cy="2.117" rx=".926" ry=".926" transform="scale(-1,1)"/><g id="layer1-0" transform="matrix(0.51472179,0,0,0.51472179,-0.23863557,1.0271722)"><path id="rect928" d="m 3.3379519,0.01950359 0.01434,0.23861352 0.01434,0.23861361 -1.2359221,2.29728788 0.2522389,0.1862538 0.089264,0.6379472 v 0 L 1.830008,3.2203178 1.4900088,3.8522961 1.1689068,3.653345 1.5089059,3.0213666 0.86670191,2.6234648 v 0 L 1.4722632,2.3907258 1.7025735,2.5287506 2.9384956,0.23146278 3.1382237,0.12548319 Z" style="fill:#fff;stroke:none;stroke-width:.517223"/><ellipse style="fill:#fff;stroke:none;stroke-width:.894098" id="path8594" cx="-1.243" cy="3.923" rx=".285" ry=".291" transform="scale(-1,1)"/></g></g></svg>