<svg xmlns="http://www.w3.org/2000/svg" xmlns:svg="http://www.w3.org/2000/svg" id="svg5" width="16" height="16" version="1.1" viewBox="0 0 4.233 4.233"><defs id="defs2"><clipPath id="clipPath1057" clipPathUnits="userSpaceOnUse"><circle style="display:none;fill:#000;stroke:none;stroke-width:.310737;stroke-linecap:round;stroke-linejoin:round" id="circle1059" cx="2.117" cy="2.117" r=".218" d="M 2.3347874,2.1166666 A 0.21812081,0.21812081 0 0 1 2.1166666,2.3347874 0.21812081,0.21812081 0 0 1 1.8985457,2.1166666 0.21812081,0.21812081 0 0 1 2.1166666,1.8985457 0.21812081,0.21812081 0 0 1 2.3347874,2.1166666 Z"/><path id="lpe_path-effect1061" d="M -3.5442408,-3.5442317 H 7.7775739 V 7.7775647 H -3.5442408 Z M 2.3347874,2.1166666 A 0.21812081,0.21812081 0 0 0 2.1166666,1.8985457 0.21812081,0.21812081 0 0 0 1.8985457,2.1166666 0.21812081,0.21812081 0 0 0 2.1166666,2.3347874 0.21812081,0.21812081 0 0 0 2.3347874,2.1166666 Z" class="powerclip" style="fill:#000;stroke:none;stroke-width:.310737;stroke-linecap:round;stroke-linejoin:round"/></clipPath></defs><g id="layer1"><circle style="fill:none;stroke:#fff;stroke-width:.310446;stroke-linecap:square;stroke-linejoin:round;stroke-miterlimit:0;stroke-dasharray:none;stroke-opacity:.995048" id="path7423" cx="2.117" cy="2.117" r="1.863"/><rect style="fill:none;stroke:#fff;stroke-width:.187004;stroke-linecap:square;stroke-linejoin:miter;stroke-miterlimit:2;stroke-dasharray:none;stroke-opacity:.995048" id="rect10740" width=".123" height=".434" x="2.055" y=".303"/><rect style="fill:none;stroke:#fff;stroke-width:.187004;stroke-linecap:square;stroke-linejoin:miter;stroke-miterlimit:2;stroke-dasharray:none;stroke-opacity:.995048" id="rect10740-1" width=".123" height=".434" x="1.998" y="3.452"/><rect style="fill:none;stroke:#fff;stroke-width:.187004;stroke-linecap:square;stroke-linejoin:miter;stroke-miterlimit:2;stroke-dasharray:none;stroke-opacity:.995048" id="rect10740-15" width=".123" height=".434" x="2.061" y="-3.88" transform="rotate(90)"/><rect style="fill:none;stroke:#fff;stroke-width:.187004;stroke-linecap:square;stroke-linejoin:miter;stroke-miterlimit:2;stroke-dasharray:none;stroke-opacity:.995048" id="rect10740-1-9" width=".123" height=".434" x="2.005" y="-.731" transform="rotate(90)"/><path id="rect9427" d="M 1.8067094,1.806695 2.624906,1.608433 2.4266293,2.4266152 1.6084281,2.6248959 Z" clip-path="url(#clipPath1057)" style="fill:#fff;stroke:#fff;stroke-width:.224835;stroke-linecap:square;stroke-miterlimit:2;stroke-opacity:.995048"/></g></svg>