<svg xmlns="http://www.w3.org/2000/svg" xmlns:svg="http://www.w3.org/2000/svg" id="svg5" width="16" height="16" version="1.1" viewBox="0 0 4.233 4.233"><defs id="defs2"><clipPath id="clipPath54065" clipPathUnits="userSpaceOnUse"><path id="path54067" d="M 2.076359,0.63510335 V 1.6934367 H 0.68419596 V 1.8257283 H 3.6685098 V 1.6934367 H 2.2086507 V 0.63510335 Z" style="display:block;fill:#000;stroke:none;stroke-width:.0549891;stroke-linecap:square;stroke-linejoin:miter;stroke-miterlimit:2;stroke-dasharray:none;stroke-opacity:.995048"/></clipPath><clipPath id="clipPath54065-6" clipPathUnits="userSpaceOnUse"><path id="path54067-1" d="M 2.076359,0.63510335 V 1.6934367 H 0.68419596 V 1.8257283 H 3.6685098 V 1.6934367 H 2.2086507 V 0.63510335 Z" style="display:block;fill:#000;stroke:none;stroke-width:.0549891;stroke-linecap:square;stroke-linejoin:miter;stroke-miterlimit:2;stroke-dasharray:none;stroke-opacity:.995048"/></clipPath></defs><g id="layer1"><g id="layer1-1" transform="matrix(0.11495075,0.42900204,-0.42900204,0.11495075,4.4201041,0.53510989)"><path id="path9513" d="M 4.5470334,3.5737392 C 5.9971405,4.0667857 7.4056605,5.6921445 6.703174,6.5708242 6.5839839,6.7199087 6.436815,6.9082473 6.3855119,7.0997127 6.3372111,7.2799737 6.3988323,7.4801383 6.4182285,7.6591092 6.521949,8.6161493 4.5357329,9.5750236 3.0376808,9.2067197 1.7656661,8.8939885 0.61475556,7.9947034 0.8193535,6.8006116 0.8449729,6.6510896 0.8560219,6.3441021 1.0224666,6.1294447 1.1760996,5.9313101 1.4499261,5.8210607 1.5284481,5.7261135 1.5866498,5.6557371 1.3186443,5.5211321 1.2553896,5.2638424 1.1934974,5.0120956 1.3428653,4.6421955 1.412363,4.5177658 2.0924285,3.3001655 3.3035977,3.1509622 4.5470334,3.5737392 Z" style="fill:#fff;stroke-width:.377319;stroke-linecap:round;stroke-linejoin:round"/><path style="fill:#fff;stroke:#fff;stroke-width:.448592;stroke-linecap:round;stroke-linejoin:miter;stroke-miterlimit:4;stroke-dasharray:none;stroke-opacity:1" id="path13450" d="M 1.672276,5.9294428 C 1.2902545,5.7081681 0.8512429,5.6467573 0.67735883,4.8416316"/><rect style="fill:#fff;stroke:#fff;stroke-width:.17693;stroke-linecap:square;stroke-linejoin:miter;stroke-miterlimit:2;stroke-dasharray:none" id="rect17031" width=".161" height="1.853" x="-6.632" y="-.591" transform="rotate(-75)"/><rect style="fill:#fff;stroke:#fff;stroke-width:.17693;stroke-linecap:square;stroke-linejoin:miter;stroke-miterlimit:2;stroke-dasharray:none" id="rect17135" width=".161" height="1.853" x="-5.267" y="-1.036" transform="rotate(-75)"/><rect style="fill:#fff;stroke:#fff;stroke-width:.17693;stroke-linecap:square;stroke-linejoin:miter;stroke-miterlimit:2;stroke-dasharray:none" id="rect17137" width=".161" height="1.853" x="-3.902" y="-.652" transform="rotate(-75)"/></g></g></svg>