<svg xmlns="http://www.w3.org/2000/svg" xmlns:svg="http://www.w3.org/2000/svg" id="svg5" width="16" height="16" version="1.1" viewBox="0 0 4.233 4.233"><defs id="defs2"><clipPath id="clipPath54065" clipPathUnits="userSpaceOnUse"><path id="path54067" d="M 2.076359,0.63510335 V 1.6934367 H 0.68419596 V 1.8257283 H 3.6685098 V 1.6934367 H 2.2086507 V 0.63510335 Z" style="display:block;fill:#000;stroke:none;stroke-width:.0549891;stroke-linecap:square;stroke-linejoin:miter;stroke-miterlimit:2;stroke-dasharray:none;stroke-opacity:.995048"/></clipPath></defs><g id="layer1"><path id="rect55835" d="M 3.4654278,0.01800844 3.3899112,0.09352489 0.01800834,3.4654277 0.76790557,4.2153249 4.215325,0.76790543 Z m 0,0.30089536 L 3.9144295,0.76790543 0.76790557,3.9144295 0.3189038,3.4654279 0.46876621,3.3155654 0.70819474,3.5549939 0.89727898,3.3659097 0.6578506,3.1264812 0.84869068,2.9356411 1.0881192,3.1750695 1.2766181,2.9865706 1.0371895,2.7471421 1.2286151,2.5557166 1.4680435,2.7951452 1.6565425,2.6066462 1.417114,2.3672176 1.6079542,2.1763774 1.8473828,2.4158059 2.0358816,2.2273071 1.7964531,1.9878785 1.9878787,1.7964529 2.2273072,2.0358815 2.4158061,1.8473826 2.1763775,1.6079541 2.3672178,1.4171138 2.6066463,1.6565424 2.7957305,1.4674581 2.556302,1.2280298 2.7471422,1.0371894 2.9865708,1.2766179 3.1750696,1.0881191 2.9356411,0.84869069 3.1270667,0.65726491 3.3664952,0.89669344 3.5549941,0.7081946 3.3155656,0.46876622 Z" style="color:#000;fill:#fff;fill-opacity:.995048;stroke-width:1.60205;stroke-linecap:square;stroke-miterlimit:2;-inkscape-stroke:none"/></g></svg>