<svg xmlns="http://www.w3.org/2000/svg" xmlns:svg="http://www.w3.org/2000/svg" id="svg12175" width="300" height="30" version="1.1" viewBox="0 0 79.375 7.938"><g id="layer1"><g id="rect1261" style="opacity:1;fill:#fff;fill-opacity:1"><path id="path3254" d="m 9.3671875,0.99609375 c -4.6196984,0 -8.37109375,3.75139535 -8.37109375,8.37109375 V 20.632812 c 0,4.619699 3.75139535,8.371094 8.37109375,8.371094 H 290.63281 c 4.6197,0 8.3711,-3.751395 8.3711,-8.371094 V 9.3671875 c 0,-4.6196984 -3.7514,-8.37109375 -8.3711,-8.37109375 z M 9.3691406,2 H 290.63086 C 294.71386,2 298,5.2861404 298,9.3691406 V 20.630859 C 298,24.71386 294.71386,28 290.63086,28 H 9.3691406 C 5.2861404,28 2,24.71386 2,20.630859 V 9.3691406 C 2,5.2861404 5.2861404,2 9.3691406,2 Z" transform="scale(0.26458333)" style="color:#000;fill:#fff;stroke-width:2;stroke-linecap:square;-inkscape-stroke:none;fill-opacity:1"/></g></g></svg>