<svg xmlns="http://www.w3.org/2000/svg" xmlns:svg="http://www.w3.org/2000/svg" id="svg5" width="16" height="16" version="1.1" viewBox="0 0 4.233 4.233"><defs id="defs2"><clipPath id="clipPath54065" clipPathUnits="userSpaceOnUse"><path id="path54067" d="M 2.076359,0.63510335 V 1.6934367 H 0.68419596 V 1.8257283 H 3.6685098 V 1.6934367 H 2.2086507 V 0.63510335 Z" style="display:none;fill:#000;stroke:none;stroke-width:.0549891;stroke-linecap:square;stroke-linejoin:miter;stroke-miterlimit:2;stroke-dasharray:none;stroke-opacity:.995048"/><path id="lpe_path-effect54069" d="M -3.9157866,-4.3610771 H 8.2008801 V 8.5493403 H -3.9157866 Z M 2.076359,0.63510335 V 1.6934367 H 0.68419596 V 1.8257283 H 3.6685098 V 1.6934367 H 2.2086507 V 0.63510335 Z" class="powerclip" style="fill:#000;stroke:none;stroke-width:.0549891;stroke-linecap:square;stroke-linejoin:miter;stroke-miterlimit:2;stroke-dasharray:none;stroke-opacity:.995048"/></clipPath></defs><g id="layer1"><path style="fill:#fff;stroke:#fff;stroke-width:.270394;stroke-linecap:square;stroke-linejoin:miter;stroke-miterlimit:2;stroke-dasharray:none;stroke-opacity:.995048" id="rect52864" width="1.846" height="2.64" x="1.219" y=".774" d="m 2.1425468,0.77411985 c 0.5114175,0 0.9231363,0.46997115 0.9231363,1.05374695 v 0.5325296 c 0,0.5837758 -0.4117188,1.0537469 -0.9231363,1.0537469 -0.5114176,0 -0.9231364,-0.4699711 -0.9231364,-1.0537469 V 1.8278668 c 0,-0.5837758 0.4117188,-1.05374695 0.9231364,-1.05374695 z" clip-path="url(#clipPath54065)" ry="1.054" transform="matrix(1.4248063,0,0,1.4248063,-0.93604749,-0.86706522)"/></g></svg>