<svg xmlns="http://www.w3.org/2000/svg" xmlns:svg="http://www.w3.org/2000/svg" id="svg5" width="16" height="16" version="1.1" viewBox="0 0 4.233 4.233"><defs id="defs2"><marker style="overflow:visible" id="TriangleInL" orient="auto" refX="0" refY="0"><path style="fill-rule:evenodd;fill:context-stroke;stroke:context-stroke;stroke-width:1pt" id="path7896" d="M 5.77,0.0 L -2.88,5.0 L -2.88,-5.0 L 5.77,0.0 z" transform="scale(-0.8)"/></marker><marker style="overflow:visible" id="Arrow2Lstart" orient="auto" refX="0" refY="0"><path style="stroke:context-stroke;fill-rule:evenodd;fill:context-stroke;stroke-width:.625;stroke-linejoin:round" id="path7781" d="M 8.7185878,4.0337352 L -2.2072895,0.016013256 L 8.7185884,-4.0017078 C 6.9730900,-1.6296469 6.9831476,1.6157441 8.7185878,4.0337352 z" transform="scale(1.1) translate(1,0)"/></marker><marker style="overflow:visible" id="Tail" orient="auto" refX="0" refY="0"><g id="g7811" transform="scale(-1.2)"><path style="fill:none;fill-rule:evenodd;stroke:context-stroke;stroke-width:.8;stroke-linecap:round" id="path7799" d="M -3.8048674,-3.9585227 L 0.54352094,0"/><path style="fill:none;fill-rule:evenodd;stroke:context-stroke;stroke-width:.8;stroke-linecap:round" id="path7801" d="M -1.2866832,-3.9585227 L 3.0617053,0"/><path style="fill:none;fill-rule:evenodd;stroke:context-stroke;stroke-width:.8;stroke-linecap:round" id="path7803" d="M 1.3053582,-3.9585227 L 5.6537466,0"/><path style="fill:none;fill-rule:evenodd;stroke:context-stroke;stroke-width:.8;stroke-linecap:round" id="path7805" d="M -3.8048674,4.1775838 L 0.54352094,0.21974226"/><path style="fill:none;fill-rule:evenodd;stroke:context-stroke;stroke-width:.8;stroke-linecap:round" id="path7807" d="M -1.2866832,4.1775838 L 3.0617053,0.21974226"/><path style="fill:none;fill-rule:evenodd;stroke:context-stroke;stroke-width:.8;stroke-linecap:round" id="path7809" d="M 1.3053582,4.1775838 L 5.6537466,0.21974226"/></g></marker><marker style="overflow:visible" id="Torso" orient="auto" refX="0" refY="0"><g id="g7989" transform="scale(0.7)"><path style="fill:none;fill-opacity:.75;fill-rule:evenodd;stroke:context-stroke;stroke-width:1.25" id="path7975" d="M -4.7792281,-3.2395420 C -2.4288541,-2.8736027 0.52103922,-1.3019943 0.25792722,0.38794346 C -0.0051877922,2.0778819 -2.2126741,2.6176539 -4.5630471,2.2517169 C -6.9134221,1.8857769 -8.5210350,0.75201414 -8.2579220,-0.93792336 C -7.9948090,-2.6278615 -7.1296041,-3.6054813 -4.7792281,-3.2395420 z"/><path style="fill:none;fill-opacity:.75;fill-rule:evenodd;stroke:context-stroke;stroke-width:1pt" id="path7977" d="M 4.4598789,0.088665736 C -2.5564571,-4.3783320 5.2248769,-3.9061806 -0.84829578,-8.7197331"/><path style="fill:none;fill-opacity:.75;fill-rule:evenodd;stroke:context-stroke;stroke-width:1pt" id="path7979" d="M 4.9298719,0.057520736 C -1.3872731,1.7494689 1.8027579,5.4782079 -4.9448731,7.5462725"/><rect style="fill-rule:evenodd;fill:context-stroke;stroke-width:1pt" id="rect7981" width="2.637" height="2.761" x="-10.392" y="-1.741" transform="matrix(0.527536,-0.849533,0.887668,0.460484,0,0)"/><rect style="fill-rule:evenodd;fill:context-stroke;stroke-width:1pt" id="rect7983" width="2.733" height="2.861" x="4.959" y="-7.963" transform="matrix(0.671205,-0.741272,0.790802,0.612072,0,0)"/><path style="fill:red;fill-opacity:.75;fill-rule:evenodd;stroke:context-stroke;stroke-width:1pt" id="path7985" d="M 16.779951 -28.685045 A 0.60731727 0.60731727 0 1 0 15.565317,-28.685045 A 0.60731727 0.60731727 0 1 0 16.779951 -28.685045 z" transform="matrix(0,-1.109517,1.109517,0,25.96648,19.71619)"/><path style="fill:red;fill-opacity:.75;fill-rule:evenodd;stroke:context-stroke;stroke-width:1pt" id="path7987" d="M 16.779951 -28.685045 A 0.60731727 0.60731727 0 1 0 15.565317,-28.685045 A 0.60731727 0.60731727 0 1 0 16.779951 -28.685045 z" transform="matrix(0,-1.109517,1.109517,0,26.82450,16.99126)"/></g></marker><marker style="overflow:visible" id="Arrow1Lstart" orient="auto" refX="0" refY="0"><path style="fill-rule:evenodd;fill:context-stroke;stroke:context-stroke;stroke-width:1pt" id="path7763" d="M 0.0,0.0 L 5.0,-5.0 L -12.5,0.0 L 5.0,5.0 L 0.0,0.0 z" transform="scale(0.8) translate(12.5,0)"/></marker><clipPath id="clipPath54065" clipPathUnits="userSpaceOnUse"><path id="path54067" d="M 2.076359,0.63510335 V 1.6934367 H 0.68419596 V 1.8257283 H 3.6685098 V 1.6934367 H 2.2086507 V 0.63510335 Z" style="display:block;fill:#000;stroke:none;stroke-width:.0549891;stroke-linecap:square;stroke-linejoin:miter;stroke-miterlimit:2;stroke-dasharray:none;stroke-opacity:.995048"/></clipPath><clipPath id="clipPath54065-6" clipPathUnits="userSpaceOnUse"><path id="path54067-1" d="M 2.076359,0.63510335 V 1.6934367 H 0.68419596 V 1.8257283 H 3.6685098 V 1.6934367 H 2.2086507 V 0.63510335 Z" style="display:block;fill:#000;stroke:none;stroke-width:.0549891;stroke-linecap:square;stroke-linejoin:miter;stroke-miterlimit:2;stroke-dasharray:none;stroke-opacity:.995048"/></clipPath></defs><g id="layer1"><path style="fill:none;stroke:#fff;stroke-width:.264583;stroke-linecap:square;stroke-linejoin:miter;stroke-miterlimit:4;stroke-dasharray:none" id="circle7515" d="M -1.4170626,0.48597486 A 1.7045456,1.7045455 0 0 1 -2.5990211,2.2712795 1.7045456,1.7045455 0 0 1 -4.5935936,1.4928072 1.7045456,1.7045455 0 0 1 -4.2536894,-0.6211472 1.7045456,1.7045455 0 0 1 -2.1156185,-0.7351289" transform="rotate(-120)"/><path style="font-variation-settings:normal;opacity:1;fill:#fff;fill-opacity:1;stroke:none;stroke-width:.776111;stroke-linecap:round;stroke-linejoin:round;stroke-miterlimit:4;stroke-dasharray:none;stroke-dashoffset:0;stroke-opacity:1;stop-color:#000;stop-opacity:1" id="path15505" d="M 4.8908408,3.0010168 5.8782366,3.7405718 6.8656325,4.4801268 5.7314612,4.9654592 4.5972898,5.4507917 4.7440653,4.2259042 Z" transform="matrix(-0.17646754,-0.65858583,0.65858583,-0.17646754,-0.74756252,5.3350329)"/></g></svg>