<?xml version="1.0" encoding="UTF-8" standalone="no"?>
<!-- Created with Inkscape (http://www.inkscape.org/) -->

<svg
   width="300"
   height="30"
   viewBox="0 0 79.374999 7.9375002"
   version="1.1"
   id="svg12175"
   sodipodi:docname="sol_client_mod_listing_outline.svg"
   inkscape:version="1.1.2 (0a00cf5339, 2022-02-04)"
   inkscape:export-filename="/home/me/Documents/Projects/Java/Sol-Client/game/src/main/resources/assets/minecraft/textures/gui/sol_client_mod_listing_outline_4x.png"
   inkscape:export-xdpi="384"
   inkscape:export-ydpi="384"
   xmlns:inkscape="http://www.inkscape.org/namespaces/inkscape"
   xmlns:sodipodi="http://sodipodi.sourceforge.net/DTD/sodipodi-0.dtd"
   xmlns="http://www.w3.org/2000/svg"
   xmlns:svg="http://www.w3.org/2000/svg">
  <sodipodi:namedview
     id="namedview12177"
     pagecolor="#101010"
     bordercolor="#666666"
     borderopacity="1.0"
     inkscape:pageshadow="2"
     inkscape:pageopacity="0"
     inkscape:pagecheckerboard="0"
     inkscape:document-units="mm"
     showgrid="false"
     showguides="true"
     inkscape:zoom="8"
     inkscape:cx="45.8125"
     inkscape:cy="29.1875"
     inkscape:window-width="1848"
     inkscape:window-height="1016"
     inkscape:window-x="72"
     inkscape:window-y="27"
     inkscape:window-maximized="1"
     inkscape:current-layer="layer1"
     units="px" />
  <defs
     id="defs12172" />
  <g
     inkscape:label="Layer 1"
     inkscape:groupmode="layer"
     id="layer1">
    <g
       id="rect1261"
       style="opacity:1;fill:#ffffff;fill-opacity:1">
      <path
         id="path3254"
         style="color:#000000;fill:#ffffff;stroke-width:2;stroke-linecap:square;-inkscape-stroke:none;fill-opacity:1"
         d="m 9.3671875,0.99609375 c -4.6196984,0 -8.37109375,3.75139535 -8.37109375,8.37109375 V 20.632812 c 0,4.619699 3.75139535,8.371094 8.37109375,8.371094 H 290.63281 c 4.6197,0 8.3711,-3.751395 8.3711,-8.371094 V 9.3671875 c 0,-4.6196984 -3.7514,-8.37109375 -8.3711,-8.37109375 z M 9.3691406,2 H 290.63086 C 294.71386,2 298,5.2861404 298,9.3691406 V 20.630859 C 298,24.71386 294.71386,28 290.63086,28 H 9.3691406 C 5.2861404,28 2,24.71386 2,20.630859 V 9.3691406 C 2,5.2861404 5.2861404,2 9.3691406,2 Z"
         transform="scale(0.26458333)"
         sodipodi:nodetypes="ssssssssssssssssss" />
    </g>
  </g>
</svg>
