<?xml version="1.0" encoding="UTF-8" standalone="no"?>
<!-- Created with Inkscape (http://www.inkscape.org/) -->

<svg
   width="16"
   height="16"
   viewBox="0 0 4.2333333 4.2333333"
   version="1.1"
   id="svg5"
   inkscape:version="1.1.1 (3bf5ae0d25, 2021-09-20)"
   sodipodi:docname="sol_client_reach_display.svg"
   inkscape:export-filename="/home/me/Documents/Projects/Java/Sol-Client/game/src/main/resources/assets/minecraft/textures/gui/sol_client_tick_4x.png"
   inkscape:export-xdpi="384.00003"
   inkscape:export-ydpi="384.00003"
   xmlns:inkscape="http://www.inkscape.org/namespaces/inkscape"
   xmlns:sodipodi="http://sodipodi.sourceforge.net/DTD/sodipodi-0.dtd"
   xmlns="http://www.w3.org/2000/svg"
   xmlns:svg="http://www.w3.org/2000/svg">
  <sodipodi:namedview
     id="namedview7"
     pagecolor="#282828"
     bordercolor="#666666"
     borderopacity="1.0"
     inkscape:pageshadow="2"
     inkscape:pageopacity="0"
     inkscape:pagecheckerboard="0"
     inkscape:document-units="mm"
     showgrid="false"
     units="px"
     inkscape:zoom="32"
     inkscape:cx="1.671875"
     inkscape:cy="11.859375"
     inkscape:window-width="1848"
     inkscape:window-height="1016"
     inkscape:window-x="72"
     inkscape:window-y="27"
     inkscape:window-maximized="1"
     inkscape:current-layer="layer1"
     showguides="false" />
  <defs
     id="defs2">
    <inkscape:path-effect
       effect="powerclip"
       id="path-effect54069"
       is_visible="true"
       lpeversion="1"
       inverse="true"
       flatten="false"
       hide_clip="false"
       message="Use fill-rule evenodd on &lt;b&gt;fill and stroke&lt;/b&gt; dialog if no flatten result after convert clip to paths." />
    <clipPath
       clipPathUnits="userSpaceOnUse"
       id="clipPath54065">
      <path
         id="path54067"
         style="display:block;fill:#000000;stroke:none;stroke-width:0.0549891;stroke-linecap:square;stroke-linejoin:miter;stroke-miterlimit:2;stroke-dasharray:none;stroke-opacity:0.995048"
         d="M 2.076359,0.63510335 V 1.6934367 H 0.68419596 V 1.8257283 H 3.6685098 V 1.6934367 H 2.2086507 V 0.63510335 Z" />
    </clipPath>
  </defs>
  <g
     inkscape:label="Layer 1"
     inkscape:groupmode="layer"
     id="layer1">
    <path
       id="rect55835"
       style="color:#000000;fill:#ffffff;fill-opacity:0.995048;stroke-width:1.60205;stroke-linecap:square;stroke-miterlimit:2;-inkscape-stroke:none"
       d="M 3.4654278,0.01800844 3.3899112,0.09352489 0.01800834,3.4654277 0.76790557,4.2153249 4.215325,0.76790543 Z m 0,0.30089536 L 3.9144295,0.76790543 0.76790557,3.9144295 0.3189038,3.4654279 0.46876621,3.3155654 0.70819474,3.5549939 0.89727898,3.3659097 0.6578506,3.1264812 0.84869068,2.9356411 1.0881192,3.1750695 1.2766181,2.9865706 1.0371895,2.7471421 1.2286151,2.5557166 1.4680435,2.7951452 1.6565425,2.6066462 1.417114,2.3672176 1.6079542,2.1763774 1.8473828,2.4158059 2.0358816,2.2273071 1.7964531,1.9878785 1.9878787,1.7964529 2.2273072,2.0358815 2.4158061,1.8473826 2.1763775,1.6079541 2.3672178,1.4171138 2.6066463,1.6565424 2.7957305,1.4674581 2.556302,1.2280298 2.7471422,1.0371894 2.9865708,1.2766179 3.1750696,1.0881191 2.9356411,0.84869069 3.1270667,0.65726491 3.3664952,0.89669344 3.5549941,0.7081946 3.3155656,0.46876622 Z" />
  </g>
</svg>
