<?xml version="1.0" encoding="UTF-8" standalone="no"?>
<svg
   id="svg8"
   width="16"
   height="16"
   version="1.1"
   viewBox="0 0 4.233 4.233"
   sodipodi:docname="sol_client_settings_small.svg"
   inkscape:export-filename="/home/me/Documents/Projects/Java/Sol-Client/game/src/main/resources/assets/minecraft/textures/gui/sol_client_settings_small_4x.png"
   inkscape:export-xdpi="384"
   inkscape:export-ydpi="384"
   inkscape:version="1.1.1 (3bf5ae0d25, 2021-09-20)"
   xmlns:inkscape="http://www.inkscape.org/namespaces/inkscape"
   xmlns:sodipodi="http://sodipodi.sourceforge.net/DTD/sodipodi-0.dtd"
   xmlns="http://www.w3.org/2000/svg"
   xmlns:svg="http://www.w3.org/2000/svg">
  <defs
     id="defs9" />
  <sodipodi:namedview
     id="namedview7"
     pagecolor="#1e1e1e"
     bordercolor="#666666"
     borderopacity="1.0"
     inkscape:pageshadow="2"
     inkscape:pageopacity="0"
     inkscape:pagecheckerboard="0"
     showgrid="false"
     inkscape:zoom="37.306954"
     inkscape:cx="1.7289002"
     inkscape:cy="11.351771"
     inkscape:window-width="1848"
     inkscape:window-height="1016"
     inkscape:window-x="72"
     inkscape:window-y="27"
     inkscape:window-maximized="1"
     inkscape:current-layer="svg8" />
  <metadata
     id="metadata5" />
  <g
     id="layer1"
     transform="matrix(0.74994115,0,0,0.74994102,0.52912454,-219.02861)">
    <g
       id="g409"
       transform="translate(8,289)"
       style="fill:#ffffff">
      <path
         style="fill:#ffffff;stroke:none;stroke-width:0.0762741"
         id="path405"
         d="m -6.4387473,3.7666702 -0.1973896,0.066383 -0.048908,0.4216358 0.026358,0.1100316 0.1152416,0.2258222 -0.3239064,0.2435546 -0.1717642,-0.1832343 -0.092984,-0.060017 -0.4026865,-0.082145 -0.1219774,0.1738377 0.1998789,0.3710153 0.083905,0.0729 0.2214043,0.1124565 -0.1237345,0.3942038 -0.2430763,-0.043801 -0.1092378,0.00803 -0.3723752,0.1785384 v 0.2147585 l 0.3723752,0.1786875 0.1092378,0.00788 0.2430763,-0.043649 0.1237345,0.3940521 -0.2214043,0.112608 -0.083905,0.0729 -0.1998789,0.3710153 0.1219774,0.1736861 0.4026865,-0.081993 0.092984,-0.060017 0.1717642,-0.1832344 0.3239064,0.2435546 -0.1152416,0.2258223 -0.026358,0.1100314 0.048908,0.4216359 0.1973896,0.066383 0.2790983,-0.3113013 0.041147,-0.1051816 0.034997,-0.2526481 h 0.4003436 l 0.034997,0.2526481 0.041147,0.1051817 0.2790983,0.3113012 0.1973896,-0.066383 0.048908,-0.4216359 -0.026358,-0.1100315 -0.1152415,-0.2258223 0.3239064,-0.2435546 0.1717641,0.1832344 0.092984,0.060017 0.4026865,0.081993 0.1219774,-0.173686 -0.199879,-0.3710154 -0.083905,-0.0729 -0.2214044,-0.112608 0.1237345,-0.3940521 0.2430763,0.043649 0.1092378,-0.00788 0.3723752,-0.1786875 V 5.7758818 l -0.3723752,-0.1785359 -0.1092378,-0.00803 -0.2430763,0.0438 -0.1237345,-0.3942038 0.2214044,-0.1124564 0.083905,-0.0729 0.199879,-0.3710154 -0.1219774,-0.1738377 -0.4026865,0.082145 -0.092984,0.060017 -0.1717641,0.1832343 -0.3239064,-0.2435546 0.1152415,-0.2258223 0.026358,-0.1100315 -0.048908,-0.4216358 -0.1973896,-0.066383 -0.2790983,0.3113013 -0.041147,0.10503 -0.034997,0.2527997 H -6.083505 L -6.118502,4.183003 -6.159649,4.077973 Z m 0.5554145,1.7247363 a 0.37861319,0.39186979 0 0 1 0.3786717,0.3919304 0.37861319,0.39186979 0 0 1 -0.3786717,0.3919303 0.37861319,0.39186979 0 0 1 -0.3786717,-0.3919303 0.37861319,0.39186979 0 0 1 0.3786717,-0.3919304 z" />
    </g>
  </g>
</svg>
