<svg xmlns="http://www.w3.org/2000/svg" xmlns:svg="http://www.w3.org/2000/svg" id="svg5" width="16" height="16" version="1.1" viewBox="0 0 4.233 4.233"><defs id="defs2"><clipPath id="clipPath54065" clipPathUnits="userSpaceOnUse"><path id="path54067" d="M 2.076359,0.63510335 V 1.6934367 H 0.68419596 V 1.8257283 H 3.6685098 V 1.6934367 H 2.2086507 V 0.63510335 Z" style="display:block;fill:#000;stroke:none;stroke-width:.0549891;stroke-linecap:square;stroke-linejoin:miter;stroke-miterlimit:2;stroke-dasharray:none;stroke-opacity:.995048"/></clipPath><clipPath id="clipPath54065-6" clipPathUnits="userSpaceOnUse"><path id="path54067-1" d="M 2.076359,0.63510335 V 1.6934367 H 0.68419596 V 1.8257283 H 3.6685098 V 1.6934367 H 2.2086507 V 0.63510335 Z" style="display:block;fill:#000;stroke:none;stroke-width:.0549891;stroke-linecap:square;stroke-linejoin:miter;stroke-miterlimit:2;stroke-dasharray:none;stroke-opacity:.995048"/></clipPath></defs><g id="layer1"><g id="g1002" transform="translate(0.30714648)"><circle style="fill:#fff;stroke-width:.220008;stroke-linecap:round;stroke-linejoin:round" id="path953" cx="2.624" cy=".532" r=".461"/><rect style="fill:#fff;stroke-width:.240303;stroke-linecap:round;stroke-linejoin:round" id="rect1137" width=".922" height="1.92" x="2.182" y=".382" ry=".116" transform="rotate(15)"/><path id="rect1398" d="m 2.7593192,1.1547459 c -0.016852,0.00128 -0.033532,0.00656 -0.049198,0.015599 l -0.098396,0.056398 c -0.055704,0.03216 -0.07615,0.1041183 -0.042598,0.1589935 l 0.3803843,0.6221744 c 0.00111,4.033e-4 0.00192,8.04e-4 0.003,0.0012 -0.00311,0.00212 0.00252,0.00378 0.025199,0.011999 l 0.063597,0.022799 c 0.00153,6.227e-4 0.00275,9.696e-4 0.0036,0.0012 L 3.5710858,2.2359015 C 3.6315647,2.2577949 3.6966327,2.2158343 3.71328,2.1537045 L 3.7426783,2.0445091 C 3.7593262,1.9823803 3.7232111,1.9189626 3.6610822,1.9023151 L 3.1949013,1.7775202 2.8685148,1.2123434 c -0.023116,-0.040037 -0.06613,-0.060864 -0.1091956,-0.057597 z" style="fill:#fff;stroke-width:.179077;stroke-linecap:round;stroke-linejoin:round"/><path id="rect1398-8" d="M 1.2308613,2.0476838 C 1.214009,2.0464067 1.1973298,2.041124 1.1816629,2.0320843 L 1.0832674,1.9756864 C 1.0275638,1.9435261 1.007117,1.8715682 1.0406694,1.8166929 L 1.4210537,1.1945185 c 0.00111,-4.025e-4 0.00192,-8.049e-4 0.00301,-0.0012 -0.00311,-0.00212 0.00252,-0.00378 0.025199,-0.011999 l 0.063596,-0.022798 c 0.00154,-6.236e-4 0.00275,-9.708e-4 0.0036,-0.0012 L 2.0426279,0.96652705 c 0.060479,-0.0218934 0.1255468,0.0200683 0.1421942,0.0821968 l 0.029398,0.1091954 c 0.016649,0.06213 -0.019467,0.1255477 -0.081597,0.1421952 L 1.6664435,1.4249093 1.3400569,1.9900862 c -0.023116,0.040037 -0.06613,0.060864 -0.1091956,0.057598 z" style="fill:#fff;stroke-width:.179077;stroke-linecap:round;stroke-linejoin:round"/><rect style="fill:#fff;stroke-width:.270518;stroke-linecap:round;stroke-linejoin:round" id="rect4570" width="1.027" height=".38" x="3.274" y="1.074" ry=".116" transform="rotate(30)"/><path id="rect4652" d="m 3.1372613,3.0675505 0.5193134,0.8291869 c 0.040514,0.064689 0.024045,0.1452095 -0.031659,0.1773698 l -0.1282478,0.074044 c -0.055704,0.03216 -0.1312716,0.00483 -0.1694361,-0.061267 L 2.8558352,3.2704022 C 2.81767,3.2042993 2.85277,3.1498214 2.8874939,3.0930322 l 0.031194,-0.051017 c 0.1998957,0.091179 0.150307,-0.051753 0.2185734,0.025535 z" style="fill:#fff;stroke-width:.29469;stroke-linecap:round;stroke-linejoin:round"/><path id="rect4570-9" d="M 0.7349026,4.0470866 1.4231439,3.6272171 c 0.056285,-0.034333 0.074449,-0.080263 0.042289,-0.1359656 L 1.3913882,3.3630029 C 1.3592278,3.3072994 1.2884925,3.2883457 1.2327895,3.320506 L 0.54475596,3.7177429 c -0.0557033,0.03216 -0.0746567,0.1028957 -0.0424964,0.1585987 l 0.0740444,0.1282486 c 0.0321603,0.055703 0.10368924,0.075995 0.15859864,0.042496 z" style="fill:#fff;stroke-width:.270518;stroke-linecap:round;stroke-linejoin:round"/><path id="rect4652-6" d="M 1.4831059,3.5621491 1.9545021,2.7456672 C 1.9926661,2.6795643 1.9785469,2.6004576 1.9228433,2.5682973 L 1.7945955,2.494253 C 1.7388915,2.462093 1.6633239,2.489423 1.6251594,2.55552 l -0.471397,0.8164822 c -0.038165,0.066103 -0.00307,0.1205807 0.031659,0.17737 l 0.031194,0.051016 c 0.051689,0.084533 0.1969461,0.082214 0.2664905,-0.038239 z" style="fill:#fff;stroke-width:.29469;stroke-linecap:round;stroke-linejoin:round"/></g><rect style="fill:#fff;stroke-width:.204197;stroke-linecap:round;stroke-linejoin:round" id="rect857" width=".529" height=".132" x=".503" y="1.265"/><rect style="fill:#fff;stroke-width:.204197;stroke-linecap:round;stroke-linejoin:round" id="rect857-9" width=".529" height=".132" x=".503" y="2.36"/><rect style="fill:#fff;stroke-width:.250089;stroke-linecap:round;stroke-linejoin:round" id="rect857-1" width=".794" height=".132" x=".238" y="1.812"/></g></svg>