<?xml version="1.0" encoding="UTF-8" standalone="no"?>
<!-- Created with Inkscape (http://www.inkscape.org/) -->

<svg
   width="16"
   height="16"
   viewBox="0 0 4.2333333 4.2333333"
   version="1.1"
   id="svg5"
   inkscape:version="1.1.1 (3bf5ae0d25, 2021-09-20)"
   sodipodi:docname="sol_client_potion_effects.svg"
   inkscape:export-filename="/home/me/Documents/Projects/Java/Sol-Client/game/src/main/resources/assets/minecraft/textures/gui/sol_client_tick_4x.png"
   inkscape:export-xdpi="384.00003"
   inkscape:export-ydpi="384.00003"
   xmlns:inkscape="http://www.inkscape.org/namespaces/inkscape"
   xmlns:sodipodi="http://sodipodi.sourceforge.net/DTD/sodipodi-0.dtd"
   xmlns="http://www.w3.org/2000/svg"
   xmlns:svg="http://www.w3.org/2000/svg">
  <sodipodi:namedview
     id="namedview7"
     pagecolor="#282828"
     bordercolor="#666666"
     borderopacity="1.0"
     inkscape:pageshadow="2"
     inkscape:pageopacity="0"
     inkscape:pagecheckerboard="0"
     inkscape:document-units="mm"
     showgrid="false"
     units="px"
     inkscape:zoom="32"
     inkscape:cx="1.171875"
     inkscape:cy="5.390625"
     inkscape:window-width="1848"
     inkscape:window-height="1016"
     inkscape:window-x="72"
     inkscape:window-y="27"
     inkscape:window-maximized="1"
     inkscape:current-layer="layer1"
     showguides="false" />
  <defs
     id="defs2">
    <inkscape:path-effect
       effect="powerclip"
       id="path-effect54069"
       is_visible="true"
       lpeversion="1"
       inverse="true"
       flatten="false"
       hide_clip="false"
       message="Use fill-rule evenodd on &lt;b&gt;fill and stroke&lt;/b&gt; dialog if no flatten result after convert clip to paths." />
    <clipPath
       clipPathUnits="userSpaceOnUse"
       id="clipPath54065">
      <path
         id="path54067"
         style="display:block;fill:#000000;stroke:none;stroke-width:0.0549891;stroke-linecap:square;stroke-linejoin:miter;stroke-miterlimit:2;stroke-dasharray:none;stroke-opacity:0.995048"
         d="M 2.076359,0.63510335 V 1.6934367 H 0.68419596 V 1.8257283 H 3.6685098 V 1.6934367 H 2.2086507 V 0.63510335 Z" />
    </clipPath>
  </defs>
  <g
     inkscape:label="Layer 1"
     inkscape:groupmode="layer"
     id="layer1">
    <path
       id="path58518"
       style="color:#000000;fill:#ffffff;fill-opacity:0.995048;stroke-width:0.341802;stroke-linecap:square;stroke-miterlimit:2;-inkscape-stroke:none"
       d="M 1.2621623,0.04549504 V 0.38729678 H 1.4724505 V 1.8366163 C 1.0937785,2.0668517 0.83653065,2.4579673 0.83624528,2.9074172 0.83615904,3.6125953 1.4114887,4.1879246 2.1166667,4.1878383 2.8218446,4.1879246 3.3971742,3.6125953 3.397088,2.9074172 3.397073,2.4576835 3.1397944,2.0663219 2.7608828,1.8359487 V 0.38729678 H 2.971171 V 0.04549504 Z M 1.8142522,0.38729678 H 2.4190811 V 2.0121903 l 0.098135,0.046731 C 2.8461268,2.2140258 3.0552743,2.5437685 3.0552863,2.9074172 3.0553498,3.4278426 2.6370921,3.8461002 2.1166667,3.8460367 1.5962412,3.8461002 1.1779834,3.4278426 1.178047,2.9074172 1.1782778,2.5439738 1.3873919,2.2146058 1.7161177,2.0595885 l 0.098135,-0.046731 z" />
    <path
       id="path62676"
       style="fill:#ffffff;stroke:#ffffff;stroke-width:0.136721;stroke-linecap:square;stroke-miterlimit:2;stroke-opacity:0.995048"
       d="M 2.8890643,3.4975876 C 2.7706487,3.7007713 2.515458,3.923404 2.0545912,3.923404 1.5937245,3.923404 1.3252592,3.7079473 1.2201183,3.4975876 0.99769467,3.0525764 1.0749519,3.7441216 2.216438,3.2009439 3.1161421,2.7728182 3.3907183,2.6368237 2.8890643,3.4975876 Z"
       sodipodi:nodetypes="sssss" />
  </g>
</svg>
