<svg xmlns="http://www.w3.org/2000/svg" xmlns:svg="http://www.w3.org/2000/svg" id="svg5" width="16" height="16" version="1.1" viewBox="0 0 4.233 4.233"><g id="layer1"><path id="circle8334" d="M 10 3.234375 A 3 3 0 0 0 7 6.234375 A 3 3 0 0 0 8.0761719 8.5351562 A 5.4526911 4.6271562 0 0 0 4.5507812 12.765625 L 15.449219 12.765625 A 5.4526911 4.6271562 0 0 0 11.923828 8.5351562 A 3 3 0 0 0 13 6.234375 A 3 3 0 0 0 10 3.234375 z" transform="scale(0.26458333)" style="fill:#fff;fill-opacity:1;stroke-width:.939288;stroke-linecap:round;stroke-linejoin:round;opacity:.6"/><circle style="fill:#fff;stroke-width:.24852;stroke-linecap:round;stroke-linejoin:round;opacity:.922" id="path1896" cx="2.117" cy="1.65" r=".794"/><path id="path1896-9" d="M 2.1164083,2.1786784 A 1.4426912,1.2242684 0 0 0 0.67463593,3.3775716 H 3.5586974 A 1.4426912,1.2242684 0 0 0 2.1164083,2.1786784 Z" style="fill:#fff;stroke-width:.416105;stroke-linecap:round;stroke-linejoin:round;opacity:.922"/><circle style="fill:#fff;stroke-width:.24852;stroke-linecap:round;stroke-linejoin:round;opacity:.922" id="circle8238" cx="2.117" cy="1.65" r=".794"/><path id="path8240" d="M 2.1164083,2.1786784 A 1.4426912,1.2242684 0 0 0 0.67463593,3.3775716 H 3.5586974 A 1.4426912,1.2242684 0 0 0 2.1164083,2.1786784 Z" style="fill:#fff;stroke-width:.416105;stroke-linecap:round;stroke-linejoin:round;opacity:.922"/></g></svg>