<svg xmlns="http://www.w3.org/2000/svg" xmlns:svg="http://www.w3.org/2000/svg" id="svg5" width="16" height="16" version="1.1" viewBox="0 0 4.233 4.233"><g id="layer1"><ellipse style="fill:none;fill-opacity:1;stroke:#fff;stroke-width:.425642;stroke-linecap:square;stroke-linejoin:miter;stroke-miterlimit:4;stroke-dasharray:none;stroke-opacity:1" id="path17756" cx="2.117" cy="2.117" rx="1.904" ry="1.904"/><circle style="fill:#fff;stroke:none;stroke-width:.602035;stroke-linecap:square;stroke-linejoin:round;stroke-miterlimit:0;stroke-dasharray:none;stroke-opacity:.995048" id="path8274" cx="2.117" cy="2.117" r=".316"/><path id="rect8422" d="M 2.1167021,0.6198994 1.8004896,1.0658779 h 0.1581056 l -1e-7,1.040617 0.3162121,10e-8 10e-8,-1.0406172 h 0.1581055 z" style="fill:#fff;stroke:none;stroke-width:.229937;stroke-linecap:square;stroke-linejoin:round;stroke-miterlimit:0;stroke-dasharray:none;stroke-opacity:.995048"/><path id="rect8422-0" d="m 3.1870373,2.1015268 -0.3452761,-0.3162125 10e-8,0.1581057 -0.8056446,-10e-8 2e-7,0.3162122 0.8056448,10e-8 2e-7,0.1581056 z" style="fill:#fff;stroke:none;stroke-width:.202318;stroke-linecap:square;stroke-linejoin:round;stroke-miterlimit:0;stroke-dasharray:none;stroke-opacity:.995048"/><path style="fill:#fff;stroke-width:.233;stroke-linecap:round;stroke-linejoin:round" id="path1487" d="m -0.52691321,-0.66362509 a 0.45908666,0.44709194 0 0 1 0.19459742,0.55828765 0.45908666,0.44709194 0 0 1 -0.54296113,0.26076296" transform="matrix(-0.92460221,-0.38093406,0.42293641,-0.90615936,0,0)"/><path style="fill:#fff;stroke-width:.233;stroke-linecap:round;stroke-linejoin:round" id="path1947" d="m 3.3183738,-2.2801198 a 0.45908666,0.44709194 0 0 1 0.1945974,0.5582877 0.45908666,0.44709194 0 0 1 -0.5429611,0.2607629" transform="matrix(0.92460221,-0.38093406,-0.42293641,-0.90615936,0,0)"/><rect style="fill:#fff;stroke-width:.237697;stroke-linecap:round;stroke-linejoin:round" id="rect1971" width=".265" height=".794" x="2.288" y="2.64" transform="rotate(30)"/><rect style="fill:#fff;stroke-width:.237697;stroke-linecap:round;stroke-linejoin:round" id="rect2133" width=".265" height=".794" x="-1.378" y="4.757" transform="matrix(-0.8660254,0.5,0.5,0.8660254,0,0)"/></g></svg>