<svg xmlns="http://www.w3.org/2000/svg" xmlns:svg="http://www.w3.org/2000/svg" id="svg5" width="16" height="16" version="1.1" viewBox="0 0 4.233 4.233"><defs id="defs2"><clipPath id="clipPath54065" clipPathUnits="userSpaceOnUse"><path id="path54067" d="M 2.076359,0.63510335 V 1.6934367 H 0.68419596 V 1.8257283 H 3.6685098 V 1.6934367 H 2.2086507 V 0.63510335 Z" style="display:block;fill:#000;stroke:none;stroke-width:.0549891;stroke-linecap:square;stroke-linejoin:miter;stroke-miterlimit:2;stroke-dasharray:none;stroke-opacity:.995048"/></clipPath></defs><g id="layer1"><path id="path58518" d="M 1.2621623,0.04549504 V 0.38729678 H 1.4724505 V 1.8366163 C 1.0937785,2.0668517 0.83653065,2.4579673 0.83624528,2.9074172 0.83615904,3.6125953 1.4114887,4.1879246 2.1166667,4.1878383 2.8218446,4.1879246 3.3971742,3.6125953 3.397088,2.9074172 3.397073,2.4576835 3.1397944,2.0663219 2.7608828,1.8359487 V 0.38729678 H 2.971171 V 0.04549504 Z M 1.8142522,0.38729678 H 2.4190811 V 2.0121903 l 0.098135,0.046731 C 2.8461268,2.2140258 3.0552743,2.5437685 3.0552863,2.9074172 3.0553498,3.4278426 2.6370921,3.8461002 2.1166667,3.8460367 1.5962412,3.8461002 1.1779834,3.4278426 1.178047,2.9074172 1.1782778,2.5439738 1.3873919,2.2146058 1.7161177,2.0595885 l 0.098135,-0.046731 z" style="color:#000;fill:#fff;fill-opacity:.995048;stroke-width:.341802;stroke-linecap:square;stroke-miterlimit:2;-inkscape-stroke:none"/><path id="path62676" d="M 2.8890643,3.4975876 C 2.7706487,3.7007713 2.515458,3.923404 2.0545912,3.923404 1.5937245,3.923404 1.3252592,3.7079473 1.2201183,3.4975876 0.99769467,3.0525764 1.0749519,3.7441216 2.216438,3.2009439 3.1161421,2.7728182 3.3907183,2.6368237 2.8890643,3.4975876 Z" style="fill:#fff;stroke:#fff;stroke-width:.136721;stroke-linecap:square;stroke-miterlimit:2;stroke-opacity:.995048"/></g></svg>