<svg xmlns="http://www.w3.org/2000/svg" xmlns:svg="http://www.w3.org/2000/svg" id="svg5" width="16" height="16" version="1.1" viewBox="0 0 4.233 4.233"><defs id="defs2"><clipPath id="clipPath54065" clipPathUnits="userSpaceOnUse"><path id="path54067" d="M 2.076359,0.63510335 V 1.6934367 H 0.68419596 V 1.8257283 H 3.6685098 V 1.6934367 H 2.2086507 V 0.63510335 Z" style="display:block;fill:#000;stroke:none;stroke-width:.0549891;stroke-linecap:square;stroke-linejoin:miter;stroke-miterlimit:2;stroke-dasharray:none;stroke-opacity:.995048"/></clipPath></defs><g id="layer1"><g id="g2272" transform="matrix(0.86923443,0,0,0.86923443,1.1337283,-1.0969893)" style="stroke-width:.304387;stroke-miterlimit:4;stroke-dasharray:none"><path id="rect965" d="M 0.34319177,2.1430344 0.60172461,2.4015672 0.81695848,2.1863334 0.55842561,1.9278005 Z M 0.22800802,2.7769653 0.60130419,3.1502615 0.34319173,3.408374 0.55842557,3.6236078 0.81653808,3.3654953 1.1902546,3.7392119 1.2978715,3.631595 2.1541827,2.7752838 1.7804662,2.4015672 2.0385787,2.1434548 1.8233448,1.9282209 1.5652323,2.1863334 1.1919362,1.8130372 Z M 0.65721463,2.7757043 1.1902547,2.2426642 1.7232947,2.7757041 1.1902546,3.3087442 Z M 1.5652323,3.3650749 1.8233448,3.6231874 2.0385787,3.4079536 1.7804661,3.1498411 Z" style="color:#000;fill:#fff;stroke-width:.304387;stroke-linecap:square;-inkscape-stroke:none"/></g><g id="g2045" transform="translate(0.06886338,-0.12732146)"><rect style="fill:#fff;stroke-width:.20261;stroke-linecap:round;stroke-linejoin:round" id="rect3284" width=".234" height="1.875" x="4.259" y="-1.028" transform="rotate(45)"/><rect style="fill:#fff;stroke-width:.20261;stroke-linecap:round;stroke-linejoin:round" id="rect3286" width=".234" height="1.875" x="-.027" y="3.439" transform="rotate(-45)"/></g><g id="g2375" transform="translate(-1.2869803,1.8213555)" style="stroke-width:.264583;stroke-miterlimit:4;stroke-dasharray:none"><rect style="fill:#fff;stroke-width:.264583;stroke-linecap:round;stroke-linejoin:round;stroke-miterlimit:4;stroke-dasharray:none" id="rect1430" width=".213" height="1.702" x="2.291" y=".232"/><rect style="fill:#fff;stroke-width:.264583;stroke-linecap:round;stroke-linejoin:round;stroke-miterlimit:4;stroke-dasharray:none" id="rect1430-9" width=".213" height="1.702" x="-1.189" y="1.547" transform="rotate(-90)"/><rect style="fill:#fff;stroke-width:.264583;stroke-linecap:round;stroke-linejoin:round;stroke-miterlimit:4;stroke-dasharray:none" id="rect3284-4" width=".213" height="1.702" x="2.354" y="-1.781" transform="rotate(45)"/><rect style="fill:#fff;stroke-width:.264583;stroke-linecap:round;stroke-linejoin:round;stroke-miterlimit:4;stroke-dasharray:none" id="rect3286-7" width=".213" height="1.702" x=".824" y="1.61" transform="rotate(-45)"/></g></g></svg>