<?xml version="1.0" encoding="UTF-8" standalone="no"?>
<!-- Created with Inkscape (http://www.inkscape.org/) -->

<svg
   width="32"
   height="32"
   viewBox="0 0 32 32"
   version="1.1"
   id="svg5"
   inkscape:version="1.1.1 (3bf5ae0d25, 2021-09-20)"
   sodipodi:docname="wheel.svg"
   inkscape:export-filename="/home/me/Documents/Eclipse Projects/client/Sol-Client/game/src/main/resources/assets/minecraft/textures/gui/wheel.png"
   inkscape:export-xdpi="768"
   inkscape:export-ydpi="768"
   xmlns:inkscape="http://www.inkscape.org/namespaces/inkscape"
   xmlns:sodipodi="http://sodipodi.sourceforge.net/DTD/sodipodi-0.dtd"
   xmlns="http://www.w3.org/2000/svg"
   xmlns:svg="http://www.w3.org/2000/svg">
  <sodipodi:namedview
     id="namedview7"
     pagecolor="#ffffff"
     bordercolor="#666666"
     borderopacity="1.0"
     inkscape:pageshadow="2"
     inkscape:pageopacity="0.0"
     inkscape:pagecheckerboard="0"
     inkscape:document-units="px"
     showgrid="false"
     inkscape:zoom="16"
     inkscape:cx="12.28125"
     inkscape:cy="15.4375"
     inkscape:window-width="1920"
     inkscape:window-height="1011"
     inkscape:window-x="0"
     inkscape:window-y="32"
     inkscape:window-maximized="1"
     inkscape:current-layer="layer1" />
  <defs
     id="defs2">
    <marker
       style="overflow:visible"
       id="Arrow1Lstart"
       refX="0.0"
       refY="0.0"
       orient="auto"
       inkscape:stockid="Arrow1Lstart"
       inkscape:isstock="true">
      <path
         transform="scale(0.8) translate(12.5,0)"
         style="fill-rule:evenodd;fill:context-stroke;stroke:context-stroke;stroke-width:1.0pt"
         d="M 0.0,0.0 L 5.0,-5.0 L -12.5,0.0 L 5.0,5.0 L 0.0,0.0 z "
         id="path2164" />
    </marker>
  </defs>
  <g
     inkscape:label="Layer 1"
     inkscape:groupmode="layer"
     id="layer1">
    <path
       id="circle5355-5"
       style="fill:#808080;fill-opacity:0.598852;stroke:#4d4d4d;stroke-width:1.28;stroke-miterlimit:0;stroke-opacity:0.995048;paint-order:fill markers stroke"
       d="M 16 0.640625 A 15.36 15.360001 0 0 0 0.640625 16 A 15.36 15.360001 0 0 0 16 31.359375 A 15.36 15.360001 0 0 0 31.359375 16 A 15.36 15.360001 0 0 0 16 0.640625 z M 16 9.1113281 A 6.8885498 6.8885498 0 0 1 22.888672 16 A 6.8885498 6.8885498 0 0 1 16 22.888672 A 6.8885498 6.8885498 0 0 1 9.1113281 16 A 6.8885498 6.8885498 0 0 1 16 9.1113281 z " />
    <path
       id="circle5355"
       style="fill:#4d4d4d;fill-opacity:1;stroke:none;stroke-width:1.28;stroke-linecap:butt;stroke-linejoin:miter;stroke-miterlimit:0;stroke-dasharray:none;stroke-dashoffset:0;stroke-opacity:0.995048;paint-order:fill markers stroke"
       d="M 16 0.640625 A 15.36 15.36 0 0 0 15.359375 0.68554688 L 15.359375 9.1835938 A 6.8885498 6.8885498 0 0 1 16 9.1113281 A 6.8885498 6.8885498 0 0 1 16.640625 9.1445312 L 16.640625 0.65429688 A 15.36 15.36 0 0 0 16 0.640625 z M 26.402344 4.703125 L 20.398438 10.705078 A 6.8885498 6.8885498 0 0 1 21.302734 11.609375 L 27.306641 5.6074219 A 15.36 15.36 0 0 0 26.402344 4.703125 z M 5.6152344 4.7207031 A 15.36 15.36 0 0 0 4.7109375 5.625 L 10.703125 11.617188 A 6.8885498 6.8885498 0 0 1 11.607422 10.712891 L 5.6152344 4.7207031 z M 0.68554688 15.367188 A 15.36 15.36 0 0 0 0.640625 16 A 15.36 15.36 0 0 0 0.6875 16.648438 L 9.1835938 16.648438 A 6.8885498 6.8885498 0 0 1 9.1113281 16 A 6.8885498 6.8885498 0 0 1 9.1816406 15.367188 L 0.68554688 15.367188 z M 22.855469 15.367188 A 6.8885498 6.8885498 0 0 1 22.888672 16 A 6.8885498 6.8885498 0 0 1 22.816406 16.648438 L 31.3125 16.648438 A 15.36 15.36 0 0 0 31.359375 16 A 15.36 15.36 0 0 0 31.345703 15.367188 L 22.855469 15.367188 z M 10.710938 20.390625 L 4.7167969 26.384766 A 15.36 15.36 0 0 0 5.6230469 27.289062 L 11.617188 21.296875 A 6.8885498 6.8885498 0 0 1 10.710938 20.390625 z M 21.289062 20.390625 A 6.8885498 6.8885498 0 0 1 20.382812 21.296875 L 26.376953 27.289062 A 15.36 15.36 0 0 0 27.283203 26.384766 L 21.289062 20.390625 z M 15.359375 22.816406 L 15.359375 31.314453 A 15.36 15.36 0 0 0 16 31.359375 A 15.36 15.36 0 0 0 16.640625 31.314453 L 16.640625 22.816406 A 6.8885498 6.8885498 0 0 1 16 22.888672 A 6.8885498 6.8885498 0 0 1 15.359375 22.816406 z " />
  </g>
</svg>
