<svg xmlns="http://www.w3.org/2000/svg" xmlns:svg="http://www.w3.org/2000/svg" id="svg5" width="32" height="32" version="1.1" viewBox="0 0 32 32"><defs id="defs2"><marker style="overflow:visible" id="Arrow1Lstart" orient="auto" refX="0" refY="0"><path style="fill-rule:evenodd;fill:context-stroke;stroke:context-stroke;stroke-width:1pt" id="path2164" d="M 0.0,0.0 L 5.0,-5.0 L -12.5,0.0 L 5.0,5.0 L 0.0,0.0 z" transform="scale(0.8) translate(12.5,0)"/></marker></defs><g id="layer1"><path id="circle5355-5" d="M 16 0.640625 A 15.36 15.360001 0 0 0 0.640625 16 A 15.36 15.360001 0 0 0 16 31.359375 A 15.36 15.360001 0 0 0 31.359375 16 A 15.36 15.360001 0 0 0 16 0.640625 z M 16 9.1113281 A 6.8885498 6.8885498 0 0 1 22.888672 16 A 6.8885498 6.8885498 0 0 1 16 22.888672 A 6.8885498 6.8885498 0 0 1 9.1113281 16 A 6.8885498 6.8885498 0 0 1 16 9.1113281 z" style="fill:gray;fill-opacity:.598852;stroke:#4d4d4d;stroke-width:1.28;stroke-miterlimit:0;stroke-opacity:.995048;paint-order:fill markers stroke"/><path id="circle5355" d="M 16 0.640625 A 15.36 15.36 0 0 0 15.359375 0.68554688 L 15.359375 9.1835938 A 6.8885498 6.8885498 0 0 1 16 9.1113281 A 6.8885498 6.8885498 0 0 1 16.640625 9.1445312 L 16.640625 0.65429688 A 15.36 15.36 0 0 0 16 0.640625 z M 26.402344 4.703125 L 20.398438 10.705078 A 6.8885498 6.8885498 0 0 1 21.302734 11.609375 L 27.306641 5.6074219 A 15.36 15.36 0 0 0 26.402344 4.703125 z M 5.6152344 4.7207031 A 15.36 15.36 0 0 0 4.7109375 5.625 L 10.703125 11.617188 A 6.8885498 6.8885498 0 0 1 11.607422 10.712891 L 5.6152344 4.7207031 z M 0.68554688 15.367188 A 15.36 15.36 0 0 0 0.640625 16 A 15.36 15.36 0 0 0 0.6875 16.648438 L 9.1835938 16.648438 A 6.8885498 6.8885498 0 0 1 9.1113281 16 A 6.8885498 6.8885498 0 0 1 9.1816406 15.367188 L 0.68554688 15.367188 z M 22.855469 15.367188 A 6.8885498 6.8885498 0 0 1 22.888672 16 A 6.8885498 6.8885498 0 0 1 22.816406 16.648438 L 31.3125 16.648438 A 15.36 15.36 0 0 0 31.359375 16 A 15.36 15.36 0 0 0 31.345703 15.367188 L 22.855469 15.367188 z M 10.710938 20.390625 L 4.7167969 26.384766 A 15.36 15.36 0 0 0 5.6230469 27.289062 L 11.617188 21.296875 A 6.8885498 6.8885498 0 0 1 10.710938 20.390625 z M 21.289062 20.390625 A 6.8885498 6.8885498 0 0 1 20.382812 21.296875 L 26.376953 27.289062 A 15.36 15.36 0 0 0 27.283203 26.384766 L 21.289062 20.390625 z M 15.359375 22.816406 L 15.359375 31.314453 A 15.36 15.36 0 0 0 16 31.359375 A 15.36 15.36 0 0 0 16.640625 31.314453 L 16.640625 22.816406 A 6.8885498 6.8885498 0 0 1 16 22.888672 A 6.8885498 6.8885498 0 0 1 15.359375 22.816406 z" style="fill:#4d4d4d;fill-opacity:1;stroke:none;stroke-width:1.28;stroke-linecap:butt;stroke-linejoin:miter;stroke-miterlimit:0;stroke-dasharray:none;stroke-dashoffset:0;stroke-opacity:.995048;paint-order:fill markers stroke"/></g></svg>